<?xml version="1.0" encoding="utf-8"?>
<!-- Generator: Adobe Illustrator 22.1.0, SVG Export Plug-In . SVG Version: 6.00 Build 0)  -->
<svg version="1.1" id="Layer_1" xmlns="http://www.w3.org/2000/svg" xmlns:xlink="http://www.w3.org/1999/xlink" x="0px" y="0px"
	 width="140px" height="64px" viewBox="0 0 140 64" style="enable-background:new 0 0 140 64;" xml:space="preserve">
<style type="text/css">
	.st0{fill:#212121;}
</style>
<path class="st0" d="M46,11.1c0.3-0.4,0.6-1,0.8-1.4l-1.4,2.8C45.6,12,45.9,11.6,46,11.1z M48.4,8.6c-0.3,0.6-0.6,1.3-0.8,2
	C48,9.8,48.2,9.1,48.4,8.6z M64.8,8.6c-0.3,0.6-0.6,1.3-0.8,2C64.4,9.8,64.7,9.1,64.8,8.6z M62,12.6l1.4-2.8
	c-0.3,0.4-0.6,0.8-0.8,1.4C62.3,11.6,62.2,12,62,12.6z M108.1,9.9h-0.4V9.7c0-0.4,0.1-0.8,0.6-1.3h0.1c0.3-0.7,0.6-1.4,0.8-2.4
	s0.6-1.8,0.8-2.5c0.1-0.3,0.1-0.4,0.1-0.7c-0.1,0.1-0.4,0.4-0.6,0.8c-0.1,0.4-0.4,1-0.6,1.4c-0.1,0.6-0.4,1-0.4,1.5
	c-0.1,0.4-0.3,0.8-0.3,1.1c0-0.1,0.1-0.6,0.3-1.3c0.1-0.6,0.3-1.3,0.6-1.8c0.1-0.6,0.4-1.1,0.6-1.7c0.3-0.4,0.4-0.7,0.6-0.7l0.3,0.1
	c0.3,0,0.4,0.1,0.4,0.3h0.1c0.1,0,0.3,0,0.4,0.1l0.6-0.1c0.1,0.1,0.4,0.3,0.6,0.3l0.1,0.4c0,1-0.1,2.2-0.6,3.9
	c-0.4,1.5-0.8,2.6-1.5,3.5c0,0-0.1,0-0.3,0.1c-0.1,0-0.3,0.1-0.3,0.1c-0.3,0-0.7-0.1-1.3-0.4C108.6,10.4,108.3,10.2,108.1,9.9z
	 M109.2,6.9L109.2,6.9c0.3-0.3,0.3-0.6,0.4-0.8c0-0.3,0.1-0.6,0.3-0.8h-0.1L109.2,6.9z M138.6,24.5c-1.3,2.6-3.2,4.9-5.7,7
	c-2.5,2.1-5,3.6-7.7,4.6c-0.3,0.7-0.6,1.7-1.1,2.6c-0.4,1-1,2-1.7,2.8c-0.7,0.8-1.4,1.7-2.2,2.2c-0.8,0.6-1.7,0.8-2.6,0.8
	c-0.7,0-1.1-0.1-1.7-0.3c-0.4-0.1-1-0.4-1.5-0.7c-1-0.4-1.7-0.8-2.4-1.4c-0.7-0.4-1.1-1-1.4-1.5c-0.3-0.6-0.6-1.1-0.7-2
	c-0.1-0.7-0.3-1.7-0.3-2.6c0-0.3,0-0.7,0-1c-0.1,0.1-0.3,0.4-0.4,0.6c-0.8,1-1.7,2-2.4,2.8c-0.8,0.8-1.5,1.3-2.1,1.3
	c-1.3,0-2.4-0.6-3.5-1.5c-0.8-0.7-1.4-1.5-1.7-2.5c-0.3,0.4-0.6,1-0.8,1.4c-1.1,1.8-2.2,3.6-3.3,5.2c-1.1,1.7-2.1,3.1-2.9,4.5
	c-0.8,1.4-1.5,2.4-1.8,2.9c-0.4,0.7-1,1.5-1.8,2.6c-0.7,1-1.4,1.8-2.1,2.2c-0.3,0.3-0.7,0.6-1.4,0.7c-0.6,0.3-1,0.4-1.4,0.4
	c-0.3,0-0.7-0.1-1.3-0.3c-0.6-0.1-1.1-0.4-1.7-0.7c-0.6-0.3-1-0.7-1.5-1c-0.1-0.3-0.4-0.7-0.4-1c-0.1-0.3-0.1-0.7-0.1-1s0-0.7,0-1
	c0-1.5,0.4-3.3,1.3-5.3s1.8-3.9,2.8-5.9s2-3.9,2.8-5.7c0.8-1.8,1.3-3.3,1.3-4.6c0-0.7-0.3-1.1-0.8-1.5c-0.6-0.4-1.3-0.8-1.8-1.3
	c-0.4-0.3-0.7-0.6-1.1-0.8v0.1c0,0.7-0.3,2-0.8,3.5c-0.6,1.5-1.1,3.2-2,4.7c-0.7,1.7-1.5,3.2-2.2,4.7c-0.7,1.5-1.4,2.5-1.8,3.2
	c-0.3,0.4-0.7,0.6-1.1,0.6c-0.4,0-0.7-0.1-1.1-0.3c-0.4-0.1-0.7-0.3-1-0.6l-1.1-0.3c-0.8-0.4-1.4-1.3-1.7-2.4
	c-0.3-1.3-0.3-2.2-0.3-3.1c0-1.1,0.1-2.2,0.4-3.5c0.3-1.3,0.4-2.2,0.4-2.9c0-0.1,0-0.3-0.1-0.4c-0.3,0.4-0.7,1.3-1.3,2.4
	c-0.6,1.1-1.3,2.4-2,3.5c-0.7,1.3-1.5,2.2-2.2,3.2c-0.8,1-1.5,1.4-2.1,1.4c-0.3,0-0.7-0.1-1-0.3c-0.3-0.1-0.7-0.3-1-0.4
	c-0.8-0.4-1.5-0.8-2-1.3c-0.4-0.4-0.7-0.8-0.8-1.3c0-0.1,0-0.3-0.1-0.3c-0.1,0.4-0.4,0.8-0.6,1.3c-1,2.1-2.1,4-3.1,5.9
	c-1,1.8-1.7,3.2-2.1,4c-0.3,0.6-0.8,1.8-1.7,3.6c-0.8,1.8-1.7,3.8-2.8,5.7c-1,2-2,3.8-2.9,5.2c-1,1.4-1.8,2.4-2.2,2.4
	c-0.6,0-1.3-0.3-2-0.7c-0.8-0.4-1.7-0.8-2.2-1.4c-0.6-0.4-1-1-1.4-1.5c-0.3-0.6-0.6-1.1-0.7-1.8c-0.1-0.7-0.1-1.5-0.1-2.6
	c0-2.9,0.4-6,1.1-8.9c0.6-2.2,1.3-4.6,1.8-6.7c-0.6,1-1,1.8-1.4,2.8c-1,1.8-1.7,3.2-2.1,4c-0.3,0.6-0.8,1.8-1.7,3.6
	c-0.8,1.8-1.7,3.8-2.8,5.7c-1,2-2,3.8-2.9,5.2c-1,1.4-1.7,2.4-2.2,2.4c-0.6,0-1.3-0.3-2-0.7c-0.8-0.4-1.7-0.8-2.2-1.4
	c-0.6-0.4-1-1-1.4-1.5c-0.3-0.6-0.6-1.1-0.7-1.8s-0.1-1.5-0.1-2.6c0-2.9,0.4-6,1.1-8.9c0.4-1.8,1-3.6,1.4-5.4
	c-0.1,0.1-0.1,0.3-0.3,0.3c-0.8,1.3-1.7,2.2-2.6,2.9c-1,0.8-1.8,1.3-2.6,1.3c-0.4,0-1-0.1-1.5-0.4c-0.6-0.3-1.3-0.6-1.8-1
	c-0.6-0.4-1.1-0.8-1.4-1.4c-0.4-0.6-0.6-1.1-0.6-1.7c0-1.4,0.1-2.8,0.3-4.3c0.1-1.5,0.4-2.9,0.8-4.2c0-0.1,0.1-0.4,0.1-0.6
	c0-0.3,0.1-0.4,0.1-0.6v-0.3c-0.6,0.6-1.1,1.3-1.8,2.1c-0.7,1-1.4,1.8-2.2,2.8S7.5,38.3,6.7,39c-0.8,0.7-1.5,1-2.1,1
	c-1.4-0.7-2.6-1.3-3.3-2C0.4,37.3,0,36,0,34.2c0-1.4,0.3-2.8,1-4.2c0.7-1.5,1.5-2.9,2.5-4.2c1-1.3,2.2-2.4,3.6-3.1
	c1.4-0.8,2.6-1.3,4-1.3c0.8,0,1.8,0.1,2.8,0.4s2,0.6,2.8,0.7c0.1-0.1,0.3-0.4,0.4-0.6c0.1-0.1,0.4-0.3,0.7-0.3c0.3,0,0.4,0,0.6,0.1
	l0.1,0.1c0,0,0.1,0.1,0.4,0.1c0,0,0.1,0,0.1-0.1l0.1,0.3c0.3,0,0.6,0,0.7-0.1l0.6,0.4c0.3-0.1,0.6,0,0.6,0.4
	c0.1,0.4,0.1,0.7,0.1,0.8c0,0.4-0.1,0.8-0.3,1.5c-0.3,0.7-0.6,1.3-0.8,2c-0.3,0.7-0.6,1.4-0.8,2s-0.4,1-0.6,1.3
	c-0.1,0.6-0.4,1.4-0.8,2.5s-0.7,2.4-1,3.6c-0.4,1.3-0.7,2.5-0.8,3.8c-0.3,1.3-0.3,2.1-0.3,2.6c0,0.1,0,0.1,0,0.3c0,0,0,0.1,0,0.3
	c0.4,0,1-0.4,1.7-1.3c0.7-0.7,1.4-1.7,2.2-2.8c0.8-1.1,1.7-2.4,2.6-3.6c1-1.4,1.8-2.6,2.5-3.9c0.8-1.3,1.5-2.4,2.1-3.3
	c0.6-1,1-1.7,1.3-2.1l0,0c0.1-0.3,0.3-0.7,0.4-1c1.3-2.8,2.6-5.7,4.2-8.8c1.5-3.1,3.1-5.9,4.6-8.2c1.5-2.5,3.1-4.5,4.5-6.1
	s2.6-2.4,3.8-2.4c0.1,0,0.4,0,0.7,0.1c0.3,0,0.7,0.1,1.1,0.3s0.7,0.1,1,0.3c0.3,0.1,0.4,0.3,0.4,0.3c0.1,0,0.4,0,0.6,0.1
	c0.1,0.1,0.3,0.3,0.3,0.6s0,0.6-0.1,0.7c0.3,0.4,0.4,0.7,0.6,1c0.1,0.3,0.1,0.7,0.1,1.1c0,1.7-0.4,3.3-1.1,5
	c-0.7,1.7-1.7,3.5-2.8,5.2s-2.2,3.3-3.6,4.7c-1.3,1.5-2.4,2.9-3.5,4c-0.7,0.8-1.7,1.8-2.6,2.6s-1.8,1.8-2.2,2.8c-1,1.8-2,4-3.1,6.7
	c-1.1,2.6-2.1,5.4-2.9,8.2c-1,2.8-1.7,5.7-2.4,8.4c-0.7,2.8-1,5.2-1,7.1v1l0.3-0.1c0.8-1.4,1.7-2.8,2.4-4.3c0.7-1.5,1.4-2.9,2.1-4.5
	c0.7-1.4,1.5-3.2,2.9-5.7c1.3-2.4,2.6-5,4.2-7.7c1.5-2.6,3.1-5.2,4.5-7.5c1.4-2.2,2.5-3.9,3.3-5c0,0,0-0.1,0.1-0.1
	c1.3-2.8,2.6-5.7,4.2-8.8s3.6-5.6,5.2-8.1s3.1-4.5,4.5-6.1C60,0.7,61.2,0,62.3,0c0.1,0,0.4,0,0.7,0.1c0.3,0,0.7,0.1,1.1,0.3
	c0.4,0.1,0.7,0.1,1,0.3C65.4,0.9,65.5,1,65.5,1c0.1,0,0.4,0,0.6,0.1c0.3,0,0.4,0.3,0.4,0.4c0,0.3,0,0.6-0.1,0.7
	c0.1,0.4,0.4,0.7,0.6,1c0.1,0.3,0.1,0.7,0.1,1.1c0,1.7-0.4,3.3-1.1,5s-1.7,3.5-2.8,5.2s-2.2,3.3-3.6,4.7c-1.3,1.5-2.4,2.9-3.5,4
	c-0.7,0.8-1.7,1.8-2.6,2.6c-1,0.8-1.8,1.8-2.2,2.8c-1,1.8-2,4-3.1,6.7s-2.1,5.4-2.9,8.2c-1,2.8-1.7,5.7-2.4,8.4
	c-0.7,2.8-1,5.2-1,7.1v1l0.3-0.1c0.8-1.4,1.7-2.8,2.4-4.3c0.7-1.5,1.4-2.9,2.1-4.5c0.7-1.4,1.5-3.2,2.9-5.7c1.3-2.4,2.6-5,4.2-7.7
	c1.5-2.5,2.9-5,4.3-7.3c0-0.3,0-0.6,0.1-0.8c0.1-1.1,0.3-2.2,0.6-3.3c0.3-1.1,0.7-2.2,1-3.1c0.4-1,0.8-1.5,1.5-1.7l0.3,0.1l0.4-0.1
	l0.1,0.3l0.4,0.1l0.1-0.1c0.1,0.1,0.1,0.4,0.1,0.7l0.3-0.4h0.1c0,0.3,0,0.6,0.1,0.7l0.3-0.7h0.1c0.1,0,0.3,0.1,0.3,0.3
	c0,0.3,0.1,0.4,0.1,0.6l0.1-0.6h0.1c0.4,0.4,0.6,0.7,0.6,1c0,0.6-0.1,1.3-0.3,2.4c-0.3,1.1-0.6,2.4-0.8,3.6c-0.3,1.3-0.7,2.5-1,3.8
	c-0.3,1.1-0.6,2.1-0.7,2.6c0.7-0.6,1.3-1.1,1.7-1.7c0.6-0.6,1-1.3,1.5-1.8c-0.4,0.7-0.8,1.3-1.3,1.8c-0.4,0.6-0.8,1.1-1.4,1.7V36
	c0.7-0.6,1.4-1.1,1.8-2c0.4-0.8,1-1.5,1.7-2.2c-0.3,0.6-0.7,1-1,1.5c-0.4,0.4-0.7,1-1,1.5c0,0.1-0.1,0.4-0.4,0.7
	c-0.3,0.3-0.6,0.6-0.6,0.7c1.5-1.5,2.9-3.2,4-5.2c-0.6,1-1.1,2-1.7,2.8l0.1,0.1c0.6-0.6,1.1-1.3,1.7-2.1c0.6-0.8,1.1-1.7,1.7-2.6
	c0.6-1,1-1.8,1.5-2.8c0.4-1,0.8-1.7,1-2.4c0.3-0.7,0.4-1.5,0.7-2.4c0.1-0.8,0.4-1.7,0.8-2.4c0-0.3,0.1-0.8,0.4-1.5
	c0.3-0.7,0.4-1.1,0.7-1.3l0.1,0.3l0.3-0.3l0.3,0.4l0.4-0.1l0.1,0.3l0.6-0.1c0.1,0.1,0.3,0.3,0.4,0.3c0.3,0,0.4,0.3,0.4,0.4
	c0,0.3,0,0.4,0,0.7c0,0.3,0,0.8-0.1,1.7c-0.1,0.8-0.3,1.7-0.4,2.5c-0.1,1-0.4,1.8-0.6,2.6c-0.3,0.8-0.4,1.5-0.4,1.8
	c-0.4,1.8-0.8,3.6-1.1,5.6c-0.3,1.8-0.4,3.8-0.4,5.7v0.7l0.3-0.1c1.8-2.2,3.5-4.6,4.7-7.3c1.3-2.4,2.4-4.7,3.6-7.1
	c-0.1-0.1-0.3-0.1-0.3-0.3c-0.6-0.6-0.8-1.4-0.8-2.4c0-0.4,0-1,0.1-1.7c0.1-0.7,0.3-1.4,0.6-2.1s0.6-1.3,0.8-1.8
	c0.3-0.6,0.8-0.8,1.3-0.8c0,0,0.3,0,0.6,0.1c0.3,0,0.7,0.1,1,0.3c0.3,0.1,0.6,0.1,0.8,0.3c0.3,0,0.4,0.1,0.4,0.1v0.1v0.1
	c0,1.1-0.3,2.1-0.7,3.1s-0.7,2-0.7,3.1c0,1.1,0.3,2,0.8,2.4c0.6,0.6,1.3,1,2.1,1.4c0.7,0.4,1.4,0.8,2.1,1.4c0.6,0.6,0.8,1.3,0.8,2.2
	c0,1-0.4,2.2-1.1,4c-0.7,1.7-1.7,3.6-2.6,5.6s-2,4-2.8,6.1c-0.8,2.1-1.4,3.9-1.7,5.6c0.4,0,1.1-0.6,2.1-1.7c1-1,2.1-2.4,3.2-3.9
	c1.3-1.5,2.5-3.2,3.8-5s2.5-3.5,3.6-5.2c1.1-1.7,2.1-3.1,2.9-4.3c0.3-0.4,0.6-0.8,0.7-1.1c0.4-1.3,0.7-2.4,1.3-3.6
	c0.6-1.4,1.1-2.6,1.7-3.9c0.6-1.3,1.1-2.2,1.5-3.2l1-0.7l0.1,0.3l0.4-0.3c-0.1,0.1-0.1,0.4,0,0.6c0.1-0.1,0.3-0.3,0.3-0.3
	c0.1-0.1,0.1-0.1,0.3-0.3V19v0.1c0,0,0,0.1-0.1,0.1l0.8-0.4l0.7,0.4l-0.3,0.6c0,0.3,0,0.4,0,0.7c0.1,0.1,0.1,0.4,0,0.7
	c-0.3,1.1-0.7,2.2-1.3,3.5c-0.4,1.1-1,2.2-1.4,3.5c-0.4,1.1-0.7,2.4-1,3.6c0.7,1.8,0.6,3.1,0.6,4.3v0.4c0.6-0.3,1.3-1,2.1-1.8
	c0.8-1,1.5-2,2.4-2.9c0.8-1,1.5-2.1,2.4-3.1c0.1-0.3,0.4-0.4,0.6-0.7c0.3-0.6,0.4-1.1,0.7-1.7c0.8-1.7,1.8-3.2,3.1-4.5
	c1.3-1.3,2.5-2,3.9-2c0.6,0,1,0,1.3,0.1c1.1,0.4,2,0.7,2.8,1c0.8,0.3,1.4,0.7,2,1.1c0.6,0.4,0.8,1.1,1.1,2c0.3,0.8,0.3,2,0.3,3.5
	c0,0.6,0,1.1-0.1,1.7c-0.1,0.6-0.1,1.1-0.1,1.7v0.4h0.1h0.1c0.4,0,1.3-0.3,2.4-0.8c1.1-0.6,2.4-1.3,3.6-2.1c1.3-0.8,2.4-1.5,3.5-2.4
	C137.2,25.3,138,24.7,138.6,24.5z M89.8,31.1L89.8,31.1l0.1-0.7h-0.1V31.1z M88.4,30.6c0.1-0.3,0.1-0.4,0.1-0.6c0-0.1,0-0.3-0.1-0.3
	C88.4,30.2,88.4,30.4,88.4,30.6z M75.6,21.4L75.6,21.4c0.1-0.1,0.3-0.3,0.3-0.4c0-0.1,0.1-0.4,0.1-0.6h-0.1L75.6,21.4z M74.6,23.3
	l0.3-1l0,0C74.7,22.8,74.6,23.2,74.6,23.3z M74.2,19.8c0,0,0.1-0.1,0.1-0.3h-0.1V19.8z M66.5,5.6L66.5,5.6l0.1-0.4h-0.1V5.6z
	 M53.4,24.9c0.7-0.7,1.7-1.7,2.5-2.8c1-1.1,2-2.2,2.9-3.5c1-1.3,2-2.6,2.8-4c1-1.4,1.7-2.8,2.4-4.2c0,0.1,0,0.3,0,0.3s0,0.1,0,0.3
	l0.1,0.1C64.6,9.9,65,9,65.5,8c0.4-1,0.7-2.1,0.7-3.2c0-0.1,0-0.3,0-0.4s0-0.3,0-0.4h-0.1c0,1.3-0.1,2.2-0.3,2.8
	c-0.1,0.7-0.4,1.3-0.7,1.7C65.7,7,66,5.8,66,4.5c0-0.3,0-0.6-0.1-0.7c0,0.4,0,0.7,0,1.1S65.7,5.6,65.7,6S65.4,7.2,65,8.3
	c-0.4,1-0.8,2.1-1.5,3.1c-0.6,1.1-1.1,2.1-1.7,2.9c-0.6,0.8-1,1.4-1.4,1.7c0.4-0.8,1-1.7,1.5-2.5c0.6-0.8,1.1-1.8,1.7-2.8
	c0.6-1,1-2,1.4-2.9c0.3-1,0.6-2,0.6-2.9V4.4c-0.3,0.3-0.4,0.7-0.4,1.1s0,0.8-0.1,1.3c0-0.4,0-0.7,0.1-1c0.1-0.3,0.1-0.7,0-1
	c0,1.1-0.1,2-0.4,2.8S64,9.1,63.6,9.9c0.3-0.7,0.6-1.4,0.8-2.2c0.3-0.7,0.4-1.5,0.4-2.2V5.2c-0.1,0.1-0.3,0.4-0.4,1
	c-0.1,0.6-0.3,1-0.4,1.3c0-0.3,0.1-0.6,0.1-0.7c0-0.3,0-0.4,0.1-0.6h-0.1c-0.4,0.6-1,1.5-2,2.9s-2,2.9-2.8,4.5
	c-1.1,1.7-2,3.1-2.6,4.5s-1.1,2.2-1.3,2.6h-0.1c-0.1,0.3-0.3,0.6-0.4,0.7c-0.1,0.3-0.3,0.7-0.4,1s-0.3,0.7-0.6,1l0.1,0.1
	c0.8-1,1.7-2,2.4-2.9c0.7-1,1.5-2,2.4-2.8V18c-0.3,0.3-0.7,0.8-1.3,1.4c-0.6,0.6-1.1,1.3-1.7,2s-1.1,1.4-1.5,2
	c-0.4,0.6-0.7,1.1-1,1.4V24.9z M49.9,5.6L49.9,5.6l0.1-0.4h-0.1V5.6z M36.8,24.9c0.7-0.7,1.7-1.7,2.5-2.8c1-1.1,2-2.2,2.9-3.5
	s2-2.6,2.8-4c1-1.4,1.7-2.8,2.4-4.2c0,0.1,0,0.3,0,0.3s0,0.1,0,0.3l0.1,0.1C48,9.9,48.4,9,48.9,8c0.4-1,0.7-2.1,0.7-3.2
	c0-0.1,0-0.3,0-0.4s0-0.3,0-0.4h-0.1c0,1.3-0.1,2.2-0.3,2.8c-0.1,0.7-0.4,1.3-0.7,1.7c0.6-1.4,0.8-2.6,0.8-3.9c0-0.3,0-0.6-0.1-0.7
	c0,0.4,0,0.7,0,1.1S49.1,5.6,49.1,6s-0.3,1.1-0.7,2.2c-0.4,1-0.8,2.1-1.5,3.1c-0.7,1.1-1.3,2.1-1.8,3.1c-0.6,0.8-1,1.4-1.4,1.7
	c0.4-0.8,1-1.7,1.5-2.5c0.6-0.8,1.1-1.8,1.7-2.8c0.6-1,1-2,1.4-2.9c0.3-1,0.6-2,0.6-2.9V4.4c-0.1,0.4-0.1,0.8-0.1,1.3
	c0,0.4,0,0.8-0.1,1.3c0-0.4,0-0.7,0.1-1c0.1-0.3,0.1-0.7,0-1c0,1.1-0.1,2-0.4,2.8c-0.6,0.4-0.8,1.3-1.3,2c0.3-0.7,0.6-1.4,0.8-2.2
	c0.3-0.7,0.4-1.5,0.4-2.2v0c-0.1,0.1-0.3,0.4-0.4,1s-0.3,1-0.4,1.3c0-0.3,0.1-0.6,0.1-0.7c0-0.3,0-0.4,0.1-0.6h-0.1
	c-0.4,0.6-1,1.5-2,2.9s-2,2.9-2.8,4.5c-1,1.7-1.8,3.1-2.6,4.5c-0.8,1.4-1.1,2.2-1.3,2.6l-0.1,0.1c-0.1,0.3-0.3,0.6-0.4,0.7
	c-0.1,0.3-0.3,0.7-0.4,1c-0.1,0.3-0.3,0.7-0.6,1l0.1,0.1c0.8-1,1.7-2,2.4-2.9c0.7-1,1.5-2,2.4-2.8l0,0.1c-0.3,0.3-0.7,0.8-1.3,1.4
	c-0.6,0.6-1.1,1.3-1.7,2c-0.6,0.7-1.1,1.4-1.5,2s-0.7,1.1-1,1.4C36.8,24.7,36.8,24.9,36.8,24.9z M1.5,34.4c0,0.1-0.1,0.4-0.1,0.6
	c0,0.1,0,0.3,0,0.6c0,0.3,0,0.4,0.1,0.6c0-0.3,0-0.6,0-0.8C1.4,34.9,1.5,34.6,1.5,34.4z M1.7,30.9L1.7,30.9c-0.7,1.5-1,3.1-1,4.5
	c0,0.6,0.1,1.1,0.3,1.5c0-0.3-0.1-0.8-0.1-1.4C0.8,33.8,1.1,32.3,1.7,30.9z M2.9,35c-0.1,0.7-0.1,1.1-0.1,1.4V37
	c0-0.3,0.1-0.7,0.1-1S2.9,35.3,2.9,35z M13,39.8c-0.1,0.4-0.3,0.8-0.3,1.4l0.1,0.7c0-0.3,0.1-0.7,0.1-1C13,40.6,13,40.2,13,39.8
	L13,39.8z M14.2,40.9c0,0.1-0.1,0.4-0.1,0.6c0,0.1,0,0.3,0,0.6v0.3c0.1-0.6,0.1-0.8,0.1-1V40.9z M14.5,30.3L14.5,30.3
	c-0.3,0.3-0.4,1-0.7,2c-0.3,1.1-0.6,2.4-0.8,3.6s-0.6,2.4-0.7,3.5c-0.1,1-0.3,1.5-0.3,1.8c0,0.4,0.1,0.7,0.3,1.1
	c0.1-2.1,0.4-4,0.8-6C13.5,34.2,13.9,32.3,14.5,30.3z M15.8,24.6L15.8,24.6c-1.3-0.1-2.5,0.3-3.8,1.3c-1.3,0.8-2.5,2-3.6,3.2
	c-1.1,1.4-2,2.8-2.8,4.2C4.9,34.8,4.5,36,4.5,37v0.6c0.3-0.1,0.7-0.4,1.1-0.8v0.1C5.4,37,5.3,37.1,5,37.4c-0.3,0.3-0.4,0.4-0.4,0.6
	c0.3-0.1,0.6-0.3,0.8-0.6c0.1-0.3,0.4-0.4,0.7-0.6c-0.3,0.4-0.6,0.7-0.7,0.8l-0.1,0.4c0.7-0.7,1.3-1.3,2-1.8c0.7-0.6,1.3-1.3,1.7-2
	c-0.1,0.3-0.4,0.7-0.8,1.3c-0.4,0.6-0.7,0.8-0.8,1.1l0.1,0.1c0.3-0.3,0.7-0.8,1.5-1.7c0.7-0.8,1.5-1.7,2.2-2.6
	c0.7-1,1.4-1.8,2.1-2.6c0.7-0.8,1-1.4,1-1.7c-0.7,0.8-1.4,1.5-2,2.4c-0.6,0.8-1.1,1.4-1.8,2.1c0-0.1,0.3-0.6,0.6-0.8
	c0.3-0.4,0.7-0.8,1-1.3c0.3-0.4,0.7-0.8,1-1.3c0.3-0.4,0.6-0.7,0.8-0.8c0.6-0.7,0.8-1.3,1.1-2C15.1,25.8,15.3,25.1,15.8,24.6z
	 M24.1,34.1L24.1,34.1c0.1-0.1,0.4-0.6,0.8-1.1c0.4-0.7,0.8-1.3,1.4-2.1c0.1-0.3,0.3-0.6,0.4-0.7c0.3-0.8,0.7-1.5,1.1-2.4
	c-0.6,0.8-1,1.8-1.5,2.6C25.7,31.7,25,33,24.1,34.1z M22.4,51.6L22.4,51.6c-0.1,0.7-0.1,1.4-0.4,2.2c-0.3,0.8-0.3,1.5-0.3,2.2
	c0,0.4,0,0.7,0,1.1c0,0.3,0,0.7,0,1.1c0-0.8,0-1.8,0.1-2.6c0.1-1,0.1-1.8,0.1-2.6c0.1-0.1,0.1-0.4,0.1-0.6
	C22.2,52.3,22.4,51.8,22.4,51.6z M24,52.9c-0.6,1.7-0.7,3.5-0.7,5.3c0,0.3,0,0.6,0.1,0.7c0-1.1,0.1-2.1,0.3-3.1
	C23.7,54.8,23.8,53.9,24,52.9z M25.1,37.6c0,0.1-0.1,0.3-0.1,0.4c-0.1,0.4-0.4,0.7-0.6,1c-0.6,2-1.1,4-1.5,6.1
	c-0.6,2.4-1,4.6-1.4,6.7c-0.3,2.1-0.6,3.8-0.6,5c0,1,0.1,1.8,0.4,2.5c-0.1-0.3-0.1-0.8-0.3-1.4c0-0.6,0-1,0-1.3
	c0-3.1,0.4-6.3,1.4-9.8C23.3,43.6,24.3,40.5,25.1,37.6z M43.8,29.1c0.3-0.6,0.4-1.1,0.7-1.7c-3.1,5.3-6.3,10.6-9.2,15.9
	C31.9,49,28.7,55,25.8,61c0.7-0.7,1.5-2,2.2-3.5c0.7-1.5,1.3-2.8,1.8-3.9c2.4-4.7,5-9.3,7.7-13.8C39.6,36.3,41.7,32.7,43.8,29.1z
	 M38.9,51.6L38.9,51.6c-0.1,0.7-0.1,1.4-0.4,2.2c-0.3,0.8-0.3,1.5-0.3,2.2c0,0.4,0,0.7,0,1.1c0,0.3,0,0.7,0,1.1c0-0.8,0-1.8,0.1-2.6
	c0.1-1,0.1-1.8,0.1-2.6c0.1-0.1,0.1-0.4,0.1-0.6C38.6,52.3,38.9,51.8,38.9,51.6z M40.4,52.9c-0.6,1.7-0.7,3.5-0.7,5.3
	c0,0.3,0,0.6,0.1,0.7c0-1.1,0.1-2.1,0.3-3.1C40.2,54.8,40.3,53.9,40.4,52.9z M41.7,37.4c0.1-0.7,0.4-1.3,0.7-2
	c0.3-0.6,0.4-1.3,0.6-1.8c-0.3,0.7-0.6,1.3-1,2c-0.3,0.8-0.6,1.7-1,2.8c-0.7,2.1-1.3,4.3-1.8,6.7c-0.6,2.4-1,4.6-1.4,6.7
	c-0.3,2.1-0.6,3.8-0.6,5c0,1,0.1,1.8,0.4,2.5c-0.1-0.3-0.1-0.8-0.3-1.4c0-0.6,0-1,0-1.3c0-3.1,0.4-6.3,1.4-9.8
	C39.9,43.4,40.7,40.3,41.7,37.4z M59.3,29.1c0,0.1,0,0.4-0.1,0.6c0.1-0.3,0.3-0.6,0.6-0.7c0.4-1.3,0.6-2.4,0.7-3.3
	c0,0,0,0.1-0.1,0.1C59.8,26.7,59.5,27.8,59.3,29.1z M59.3,30.9c0-0.1,0.1-0.4,0.1-0.6c-0.1,0.1-0.3,0.4-0.4,0.6c0,0.1,0,0.3,0,0.4
	C59.1,31.1,59.1,31,59.3,30.9z M58.1,32.8C58.1,32.7,58.1,32.7,58.1,32.8c0-0.1,0-0.3,0-0.4c-2.1,3.6-4.2,7.3-6.3,10.9
	C48.5,49,45.3,55,42.4,61c0.7-0.7,1.5-2,2.2-3.5s1.3-2.8,1.8-3.9c2.4-4.7,5-9.3,7.7-13.8C55.4,37.6,56.7,35.2,58.1,32.8z M59.3,36.7
	c-0.1-0.3-0.1-0.7-0.1-1.1s0-0.7-0.1-1c0,0.1-0.1,0.1-0.1,0.3c0,0.1,0,0.3,0,0.4c0,0.3,0,0.6,0.1,0.8C59.1,36.3,59.1,36.6,59.3,36.7
	z M59.7,33.2L59.7,33.2c0,0.4-0.1,0.8-0.1,1.3s0,0.8,0,1.4c0-0.3,0.1-0.7,0.1-1.4C59.7,33.9,59.7,33.5,59.7,33.2z M60.5,35.2
	L60.5,35.2l-0.1,1h0.1C60.5,36.2,60.5,35.2,60.5,35.2z M61.2,32.8c-0.1,0.7-0.3,1.4-0.3,2c0,0.7-0.1,1.3-0.1,2
	c0.1-0.7,0.1-1.3,0.1-2C61.1,34.2,61.2,33.5,61.2,32.8z M61.6,31c0,0.1-0.1,0.3-0.1,0.6C61.6,31.4,61.6,31.3,61.6,31z M72.9,30
	c0,0.1,0,0.4-0.1,0.4h0.1V30L72.9,30z M72.6,27.7l0.1-0.6h-0.1V27.7z M71.1,38.1C71,37.6,71,37,71,36.6c0-0.7,0-1.5,0.1-2.4
	c0.1-1,0.1-1.8,0.3-2.8s0.3-1.8,0.6-2.6s0.4-1.7,0.6-2.4h-0.1c-0.4,1.7-0.8,3.3-1.3,5c-0.4,1.7-0.6,3.3-0.6,5.2
	c0,1.1,0.1,2.1,0.6,3.1C71.3,39.1,71.3,38.7,71.1,38.1z M72.4,28.6l-0.1,0.4l0.1,0.1C72.4,28.9,72.4,28.8,72.4,28.6L72.4,28.6z
	 M71.7,36.6L71.7,36.6l-0.1,0.8h0.1V36.6z M72.1,36.9L72.1,36.9l-0.1,1h0.1V36.9z M72.2,29.6c-0.3,1.3-0.4,2.4-0.7,3.6
	c-0.1,1.3-0.3,2.4-0.3,3.8v0.6c0-0.4,0.1-1,0.3-1.7c0.1-0.7,0.1-1.5,0.3-2.4s0.1-1.5,0.3-2.2C72.1,30.4,72.2,29.9,72.2,29.6z
	 M72.2,34.4c0-0.6,0.1-1,0.3-1.4c0.1-0.4,0.1-1,0.1-1.4c-0.1,0.6-0.3,1-0.3,1.4C72.4,33.4,72.2,33.9,72.2,34.4z M73.6,29.6
	c-0.1,0.3-0.1,0.4-0.1,0.4c-0.1,0.4-0.3,0.8-0.4,1.5c-0.1,0.7-0.3,1.4-0.3,2.1c-0.1,0.7-0.1,1.4-0.1,2.1c0,0.7,0,1.3,0,1.7v1.1
	c0.1-1.5,0.3-3.1,0.4-4.5C73.1,32.5,73.3,31,73.6,29.6z M77.2,36.3c0.4-0.7,0.7-1.3,1-1.8c0.3-0.6,0.4-0.8,0.4-0.8v-0.1h-0.1
	c-0.6,1-1,2-1.7,2.9s-1.3,1.8-2,2.8v0.1H75c0.1-0.1,0.4-0.6,0.8-1.1C76.4,37.7,76.8,37,77.2,36.3z M78.8,35c0.1-0.3,0.3-0.6,0.3-0.6
	v-0.1v-0.1c-0.4,0.6-0.8,1.1-1.3,1.8c-0.4,0.7-0.7,1.4-1,2l0.1,0.1c0-0.1,0.3-0.4,0.4-0.7c0.3-0.3,0.6-0.7,0.7-1.1
	C78.4,35.7,78.5,35.3,78.8,35z M78.5,36.2L78.5,36.2l-0.1,0.4C78.4,36.4,78.5,36.3,78.5,36.2z M79.2,34.6c-0.3,0.6-0.4,0.8-0.7,1.1
	c0.1-0.1,0.3-0.3,0.4-0.4C79.2,35.2,79.2,34.9,79.2,34.6z M83.2,20.7c-0.1,0.7-0.3,1.4-0.3,2.1v0.4L83.2,20.7z M83,26.1
	c-0.3,0.4-0.6,1-0.7,1.7c-0.3,0.7-0.6,1.1-0.8,1.5c0.3,0,0.6-0.6,1-1.4C82.8,27.1,83,26.4,83,26.1z M83.1,25.6
	c-0.1,0-0.1-0.1-0.3-0.1c0,0.1,0,0.1-0.1,0.1c-0.3,0.6-0.4,0.8-0.6,1c-0.3,0.3-0.4,0.7-0.7,1.3c-0.1,0.1-0.4,0.6-0.6,0.8
	c-0.1,0.4-0.3,0.7-0.4,1v0.1c0,0,0.3-0.3,0.6-0.7c0.3-0.4,0.6-1,0.8-1.4c0.3-0.6,0.6-1,0.7-1.5C83,26,83,25.7,83.1,25.6z M83.7,17.5
	l-0.3,0.3c-0.3,0.8-0.6,1.7-0.8,2.5c-0.3,0.7-0.4,1.7-0.4,2.5c0,0.3,0,0.6,0.1,0.7c0-1.1,0.1-2.1,0.3-3.1
	C82.8,19.3,83.2,18.3,83.7,17.5z M87,32.7c0.1-0.6,0.3-1,0.6-1.5c0.3-0.4,0.4-1,0.4-1.5c0-0.3-0.1-0.6-0.3-0.7c0,0.7,0,1.4-0.1,2
	C87.4,31.3,87.1,32,87,32.7z M80.6,49.5c-0.1,0.7-0.3,1.5-0.3,2.2v0.4L80.6,49.5z M81,45.4c-0.4,1-0.7,2-1,2.9
	c-0.3,1-0.4,2.1-0.4,3.1c0,0.6,0.1,1,0.3,1.3c0-1.4,0.1-2.6,0.4-3.8C80.5,47.7,80.7,46.6,81,45.4z M81.3,44.5L81,45.2
	C81.2,45.1,81.3,44.8,81.3,44.5z M82,50.8L82,50.8c-0.1,0.3-0.3,0.6-0.3,0.8c0,0.3-0.1,0.6-0.1,0.8h0.1L82,50.8z M100.5,34.4
	c0-0.1,0-0.1,0-0.3c-0.1,0.1-0.3,0.4-0.3,0.6s0,0.4,0,0.8c0,0.6,0.1,0.8,0.3,1C100.5,35.7,100.5,35,100.5,34.4z M101.2,33.7
	c0-0.3,0-0.4,0-0.7c0,0,0,0.1-0.1,0.1c0,0.1,0,0.1,0,0.3c0,0.6-0.1,1.1-0.1,1.7v0.4C101.1,34.9,101.2,34.4,101.2,33.7z M102.8,32.4
	c-0.1,0.4-0.3,1-0.3,1.5c-0.1,0.6-0.1,1.1-0.1,1.5c0,0.3,0,0.4,0.1,0.6L102.8,32.4z M113.1,25.8L113.1,25.8L113.1,25.8L113.1,25.8z
	 M113.1,26.1L113.1,26.1l0.1-0.1C113.1,26,113.1,26.1,113.1,26.1z M108.3,32.7c0.7-0.8,1.3-1.7,2.1-2.6c0.1-0.3,0.3-0.4,0.6-0.7
	c0.1-0.3,0.1-0.6,0.3-0.8c-0.4,0.6-0.8,1.1-1.4,1.7c-0.6,0.7-1.1,1.5-1.7,2.1c-0.6,0.7-0.8,1.3-1,1.5
	C107.4,33.9,107.8,33.5,108.3,32.7z M109.9,31.7c0.1-0.3,0.4-0.6,0.7-0.8c0-0.1,0-0.1,0.1-0.3c-0.1,0.1-0.1,0.3-0.3,0.3
	c-0.4,0.6-0.8,1-1.3,1.5c-0.4,0.4-0.7,0.7-0.7,0.8l0.1,0.1l0.3-0.4C108.9,32.8,109.3,32.4,109.9,31.7z M110.8,34.9
	c0.1-0.6,0.1-1.3,0.1-1.8c-0.1,0.3-0.4,0.6-0.6,0.8v0.1c0,0.4-0.1,1-0.1,1.4s0,0.7,0,1c0,0.6,0.1,1.1,0.3,1.7l0.1-0.1
	C110.7,37,110.7,35.9,110.8,34.9z M111.3,36.2c-0.1,0.3-0.1,0.6,0,0.7V36.2z M111.4,34.8L111.4,34.8L111.4,34.8L111.4,34.8z
	 M112.8,36.4c-0.1,0.3-0.1,0.6,0,0.7V36.4z M112.9,35l-0.1,0.4l0.1,0.3V35z M113.1,34.2L113.1,34.2L113.1,34.2v0.1V34.2z
	 M120.5,35.9c-0.3-0.1-0.6-0.3-1.1-0.6c-0.4-0.3-1-0.4-1.5-0.6s-1-0.4-1.5-0.6c-0.4-0.3-0.8-0.4-1.3-0.6c-0.1,0.7-0.3,1.4-0.3,2.2
	c0,0.7,0,1.5,0,2.2c0,0.4,0.1,1,0.3,2c0.1,1,0.4,1.5,0.7,1.8c0.4-0.1,1-0.4,1.4-0.8c0.6-0.4,1-1,1.4-1.5c0.4-0.6,0.8-1.1,1.1-1.8
	C120.2,36.9,120.5,36.3,120.5,35.9z M121.4,33.5c0.4-0.7,0.7-1.7,0.8-2.9c0.3-1.3,0.3-2.4,0.3-3.2c0-0.3,0-0.7,0-1.1
	c0-0.6-0.1-1-0.1-1.5c-0.1-0.6-0.1-1-0.3-1.4c-0.1-0.4-0.3-0.7-0.6-0.8c-0.4,0.1-1,0.4-1.4,0.7c-0.6,0.4-1,0.8-1.4,1.3
	c-0.4,0.4-0.8,1-1.1,1.5s-0.4,1-0.4,1.5c0,0.4,0,0.8-0.1,1.3c-0.4,0.3-0.4,0.7-0.4,1.1c0,0.8,0.3,1.8,0.8,2.6s1.4,1.4,2.4,1.4
	C120.5,33.8,120.9,33.8,121.4,33.5z M123.4,27.2c0-1.1-0.1-2-0.4-2.8l-0.1-0.6l0.1,0.7c0,0.4,0.1,0.7,0.1,1.1c0,0.4,0,0.7,0,1.1
	c0,1,0,2.1-0.1,3.1c-0.1,1.1-0.4,2.1-0.7,3.1v0.4c0.1-0.1,0.3-0.6,0.4-1.1c0.1-0.6,0.3-1.1,0.4-1.8c0.1-0.7,0.1-1.3,0.3-1.8
	C123.4,28.1,123.4,27.7,123.4,27.2z M123.5,29.9l-0.1,0.1l0.1,0.1V29.9z M123.8,28.4c-0.1,0.1-0.1,0.4,0,0.6V28.4z M124.7,31.4
	L124.7,31.4v0.1V31.4z M124.9,30.2l-0.1,0.1v0.1v0.1v-0.4H124.9z M124.9,28.5c0,0.3,0,0.7,0,1C125.1,29.1,125.1,28.8,124.9,28.5z"/>
</svg>
