<?xml version="1.0" encoding="utf-8"?>
<!-- Generator: Adobe Illustrator 22.1.0, SVG Export Plug-In . SVG Version: 6.00 Build 0)  -->
<svg version="1.1" id="Layer_1" xmlns="http://www.w3.org/2000/svg" xmlns:xlink="http://www.w3.org/1999/xlink" x="0px" y="0px"
	 width="340px" height="320px" viewBox="0 0 340 320" style="enable-background:new 0 0 340 320;" xml:space="preserve">
<style type="text/css">
	.st0{fill:#E1912B;}
	.st1{fill:#223B32;}
	.st2{fill:#FFFFFF;}
</style>
<path class="st0" d="M242,209.9l-11.4-107.6c0-0.9-0.5-1.5-0.9-2.1L150,3.2c-0.1-0.2-0.3-0.4-0.7-0.5c-0.3-0.4-0.7-0.5-1-0.5
	L148,2.2c-0.4-0.1-0.5-0.3-0.7-0.1L146.9,2l-0.4-0.1l-22.3,3.5c-0.6,0.1-1.1,0.2-1.7,0.6c-0.2,0.1-0.4,0.3-0.6,0.4L21.6,108.1
	c-0.2,0.1-0.5,0.7-0.7,0.8c0,0-0.2,0.1-0.1,0.4c-0.1,0.4-0.3,0.5-0.3,0.9c0,0,0,0-0.2,0.1L1.4,223.2c-0.1,0.4-0.1,0.7,0,1.3l0.1,0.2
	c-0.1,0.4,0.2,0.8,0.5,1.2l0.1,0.2c-0.1,0.4,0.2,0.8,0.4,1L25,247.3c0.7,0.5,1.2,0.7,1.7,1l35.7,9.6c0.4,0.1,0.7,0.1,1.1,0.2
	s0.6-0.1,0.9,0l174.7-44c0.6-0.1,0.8-0.2,1.2-0.5c0,0,0,0,0.2-0.1c0.4-0.3,0.6-0.4,0.9-1l0.2-0.1l0.2-0.1c0.1-0.4,0.3-0.5,0.3-0.9
	S242.2,210.1,242,209.9z"/>
<path class="st1" d="M339.4,250.1c0,0,0,0-0.1-0.2c-0.1-0.2-0.1-0.6-0.2-0.8L264.4,88.6c-0.3-0.4-0.4-0.6-0.7-1c0,0,0,0-0.1-0.2
	c-0.3-0.4-0.7-0.5-1.2-0.7c0,0,0,0-0.1-0.2c0,0-0.1-0.2-0.4-0.1c-0.1-0.2-0.5-0.3-0.9-0.3c0,0,0,0-0.2,0.1c-0.4-0.1-0.9,0-1.5,0.1
	l-101.4,30.8c-0.8,0.2-1.4,0.7-1.9,1.3l-79.1,95.2c-0.2,0.1-0.3,0.5-0.5,0.7c-0.1,0.4-0.3,0.9-0.4,1.2l-0.1,0.4
	c-0.1,0.4,0.1,0.6,0,0.9c0,0,0.1,0.2,0.1,0.6c0.1,0.2-0.1,0.4,0.1,0.6l7.3,20.9c0.1,0.6,0.5,1.2,1,1.4c0.1,0.2,0.3,0.4,0.7,0.5
	l116.7,78c0.4,0.1,0.7,0.5,1,0.5l0.4,0.1c0.4,0.1,0.7,0.1,0.7,0.1s0,0,0.4,0.1l112.9-3.2c0.4,0.1,0.9,0,1.1-0.2l0.2-0.1
	c0.4-0.3,0.6-0.4,1-0.7l0.2-0.1c0.4,0.1,0.6-0.4,0.8-0.6l15.4-25.4c0.3-0.5,0.5-1,0.6-1.7l2.7-36.4
	C339.5,250.7,339.3,250.5,339.4,250.1z"/>
<path class="st2" d="M252.3,250.4L237,145.8c-0.2-0.8-0.5-1.5-0.9-2.2l-81.6-92.3c-0.1-0.2-0.3-0.4-0.7-0.5s-0.7-0.5-1-0.5l-0.4-0.1
	c-0.4-0.1-0.5-0.3-0.7-0.1l-0.4-0.1l-0.4-0.1l-21.6,4.1c-0.6,0.1-1,0.4-1.6,0.8c-0.2,0.1-0.4,0.3-0.6,0.4L32.6,158.6
	c-0.2,0.1-0.5,0.7-0.5,1c0,0-0.2,0.1-0.1,0.4c-0.1,0.4-0.3,0.5-0.3,0.9c0,0,0,0-0.2,0.1l-14,111.7c-0.1,0.4,0,0.9,0,1.3l0.1,0.2
	c-0.7-0.1-0.4,0.3-0.3,0.9c0.3,0.4,0.6,0.8,0.7,1l22.7,19c0.5,0.3,1.2,0.7,1.7,1l35.5,8.2c0.4,0.1,0.7,0.1,0.9,0
	c0.4,0.1,0.6-0.1,0.8-0.2l169.7-49.6c0.6-0.1,0.8-0.2,1.2-0.5c0,0,0,0,0.2-0.1c0.4-0.3,0.6-0.4,0.9-1c0,0,0,0,0.2-0.1l0.2-0.1
	c0.1-0.4,0.3-0.5,0.3-0.9C252.3,251.3,252.2,250.7,252.3,250.4z M229,147.7l3.2,22l-41.3-7.2l11.2-45.5L229,147.7z M197.6,112.3
	l-12.2,49.3l-87.1-15.3L175.4,87L197.6,112.3z M151.6,60.4l19.9,22.5l-80.6,62.2L151.6,60.4z M131.7,61.7l10.6-1.9l-69.8,97.6
	l-28.4-0.1L131.7,61.7z M76.9,167.4l39.4,20.2l-63.5,77L76.9,167.4z M38.2,165.2l30.7,0.3L42.4,273.4l-17.4-3.6L38.2,165.2z
	 M45.1,288.1l-9.6-8.2l8.5,1.8l14,9.5L45.1,288.1z M79.5,295.6l-28.9-19.2l70.7-86.2l101.1,51.8l-36.6,22.8L79.5,295.6z
	 M205.2,258.9l22.7-14l9.3,4.7L205.2,258.9z M80.5,160.1l12-9.2l140.6,24.4l9.9,68.2L80.5,160.1z"/>
</svg>
